<svg width="178" height="227" viewBox="0 0 178 227" fill="none" xmlns="http://www.w3.org/2000/svg">
<path d="M50.2634 161.813L48.3182 164.31V164.334L43.3711 170.65C43.3565 170.662 43.3445 170.676 43.3363 170.693C43.3279 170.709 43.3236 170.728 43.3231 170.746L2.90579 222.475H2.88183C2.86814 222.487 2.85954 222.504 2.85779 222.523L0 226.173V202.422L48.2942 163.422V163.398L50.2634 161.813Z" fill="url(#paint0_linear_1_5)"/>
<path d="M111.837 86.1655L109.484 91.5209C109.461 91.5492 109.445 91.5819 109.436 91.6169L51.9197 222.427C51.9104 222.462 51.894 222.494 51.8717 222.523L50.5989 225.429L50.2627 226.173V135.901L109.46 88.0867L111.837 86.1655Z" fill="url(#paint1_linear_1_5)"/>
<path d="M178 0L175.767 7.66079L175.743 7.6848C175.743 7.6848 175.767 7.6848 175.743 7.70882C175.74 7.73423 175.732 7.75877 175.719 7.78089V7.82889C175.711 7.88694 175.695 7.94354 175.671 7.997H175.647C175.616 8.08326 175.592 8.17154 175.574 8.26116L114.696 216.399V216.471L114.624 216.736L112.391 224.324L111.839 226.173V53.4334L171.156 5.52345C171.18 5.52345 171.204 5.49944 171.228 5.47542L178 0Z" fill="url(#paint2_linear_1_5)"/>
<path d="M178 0V226.173H111.839L112.391 224.324L114.624 216.736L114.696 216.471V216.399L175.574 8.26116C175.592 8.17154 175.616 8.08326 175.647 7.997H175.671C175.695 7.94354 175.711 7.88694 175.719 7.82889V7.78089C175.732 7.75877 175.74 7.73423 175.743 7.70882C175.767 7.6848 175.743 7.6848 175.743 7.6848L175.767 7.66079L178 0Z" fill="url(#paint3_linear_1_5)"/>
<path d="M111.837 86.1655V226.173H50.2627L50.5989 225.429L51.8717 222.523C51.894 222.494 51.9104 222.462 51.9197 222.427L109.436 91.6169C109.445 91.5819 109.461 91.5492 109.484 91.5209L111.837 86.1655Z" fill="url(#paint4_linear_1_5)"/>
<path d="M50.2634 161.813V226.173H0L2.85779 222.523C2.85954 222.504 2.86814 222.487 2.88183 222.475H2.90579L43.4432 170.554L48.3182 164.31L50.2634 161.813Z" fill="url(#paint5_linear_1_5)"/>
<g style="mix-blend-mode:multiply" opacity="0.25">
<path d="M171.155 5.52356C166.496 9.82225 161.741 13.9528 156.986 18.1074C152.231 22.3581 147.38 26.4885 142.553 30.6431L127.952 42.9871L114.095 54.49L114.191 69.6675C114.215 75.0949 114.24 80.4983 114.216 85.9257C114.168 96.7325 114.119 107.563 113.927 118.394C113.879 123.797 113.759 129.225 113.639 134.628C113.519 140.032 113.375 145.459 113.207 150.863C113.039 156.266 112.823 161.693 112.607 167.096C112.39 172.5 112.174 177.927 111.838 183.355C111.502 177.927 111.286 172.524 111.046 167.096C110.805 161.669 110.589 156.29 110.445 150.863C110.301 145.435 110.133 140.056 110.037 134.628C109.941 129.201 109.773 123.797 109.725 118.394C109.581 109.436 109.509 100.455 109.485 91.5212C109.485 90.4645 109.461 89.4319 109.461 88.3993V88.0873L111.838 86.1661V53.4334L171.155 5.52356Z" fill="#336EA6"/>
</g>
<g style="mix-blend-mode:multiply" opacity="0.25">
<path d="M111.838 86.1655C111.038 86.934 110.245 87.6785 109.461 88.3989C105.426 92.2173 101.319 95.8916 97.2128 99.5659C92.2657 103.937 87.2946 108.283 82.2755 112.558C77.2564 116.833 72.1892 121.059 67.122 125.262C62.295 129.176 57.516 133.187 52.641 137.053C52.5929 142.481 52.617 147.932 52.4729 153.36C52.3768 159.195 52.2807 165.007 52.0646 170.842C51.9205 176.654 51.6564 182.466 51.3922 188.301C51.08 194.113 50.7678 199.949 50.2635 205.76C49.7832 199.949 49.471 194.113 49.1588 188.301C48.8946 182.466 48.6305 176.654 48.4864 170.842C48.4143 168.681 48.3423 166.496 48.3183 164.334V164.31C48.2863 164.161 48.2784 164.006 48.2943 163.854C48.2702 163.711 48.2702 163.565 48.2943 163.422V163.398L50.2635 161.813V135.901L109.461 88.0867L111.838 86.1655Z" fill="#336EA6"/>
</g>
<g style="mix-blend-mode:multiply" opacity="0.25">
<path d="M50.2634 161.813C49.615 162.509 48.9666 163.182 48.2942 163.854C45.1722 167.072 41.9542 170.146 38.6642 173.172C34.7017 176.822 30.6432 180.376 26.5366 183.859C24.5193 185.636 22.406 187.293 20.3407 189.022C18.2754 190.751 16.1621 192.432 14.0488 194.089C11.9355 195.746 9.84618 197.475 7.68483 199.084C5.73961 200.525 3.81839 202.014 1.87317 203.431C1.70506 207.057 1.51297 210.683 1.22479 214.286C0.88858 218.248 0.552345 222.211 0 226.173V202.422L48.2942 163.422V163.398L50.2634 161.813Z" fill="#336EA6"/>
</g>
<g style="mix-blend-mode:multiply" opacity="0.25">
<path d="M177.999 29.2501V226.173H23.6304C32.4918 225.837 41.3774 225.645 50.2629 225.429H50.5994L62.2224 225.141L81.5065 224.756L100.815 224.444L111.838 224.324H112.39L139.407 224.036L175.646 223.844C175.598 208.21 175.605 192.576 175.67 176.942C175.67 160.54 175.862 144.114 175.982 127.712L176.294 103.096L176.726 78.4809L177.303 53.8655C177.471 45.6524 177.711 37.4633 177.999 29.2501Z" fill="#336EA6"/>
</g>
<g style="mix-blend-mode:multiply" opacity="0.25">
<path d="M46.2058 165.968C46.0377 166.256 45.0291 167.985 43.372 170.651C43.3574 170.662 43.3456 170.677 43.3372 170.694C43.3288 170.71 43.3245 170.729 43.324 170.747L2.90677 222.475L2.85876 222.523C2.86052 222.505 2.86909 222.488 2.8828 222.475C3.14697 222.019 5.33233 218.273 8.81451 213.061C10.6637 210.252 12.873 207.034 15.3226 203.648C17.7721 200.261 20.4377 196.683 23.1034 193.129C25.8651 189.623 28.5788 186.093 31.2444 182.875C33.9101 179.657 36.4077 176.655 38.6411 174.133C42.7957 169.378 45.8696 166.28 46.2058 165.968Z" fill="#336EA6"/>
</g>
<g style="mix-blend-mode:multiply" opacity="0.25">
<path d="M109.435 91.6171L51.9195 222.427C51.9101 222.462 51.8938 222.495 51.8715 222.523C51.8715 222.523 52.6399 220.41 54.0328 216.759C55.4737 213.109 57.4189 207.85 59.9405 201.63C62.4141 195.41 65.3919 188.157 68.658 180.425C71.924 172.692 75.4782 164.503 79.0324 156.29C82.6587 148.124 86.285 139.935 89.8152 132.323C93.2974 124.71 96.6114 117.625 99.5413 111.574C102.423 105.522 104.969 100.527 106.698 97.0204C108.218 93.9465 109.219 92.0493 109.435 91.6171Z" fill="#336EA6"/>
</g>
<g style="mix-blend-mode:multiply" opacity="0.25">
<path d="M172.788 16.5462C174.204 12.2955 175.165 9.41371 175.573 8.26099L114.695 216.399C114.959 215.414 115.704 212.34 116.904 207.634C118.441 201.894 120.483 193.609 123.196 183.763C125.91 173.916 128.96 162.413 132.442 150.118C135.876 137.822 139.671 124.758 143.465 111.67C147.307 98.6294 151.15 85.5652 154.896 73.3656C158.571 61.142 162.221 49.7829 165.223 40.0328C168.224 30.2827 170.986 22.2137 172.788 16.5462Z" fill="#336EA6"/>
</g>
<g style="mix-blend-mode:multiply" opacity="0.25">
<path d="M175.717 7.82422C175.709 7.88224 175.693 7.93884 175.669 7.99232H175.645C175.665 7.9345 175.689 7.87828 175.717 7.82422Z" fill="#336EA6"/>
</g>
<g style="mix-blend-mode:screen" opacity="0.6">
<path d="M2.8828 222.475H2.90677L2.85876 222.523C2.86052 222.504 2.86909 222.487 2.8828 222.475Z" fill="white"/>
</g>
<g style="mix-blend-mode:screen" opacity="0.4">
<path d="M43.4432 170.555C42.5546 171.924 41.498 173.581 40.2732 175.406C38.4241 178.191 36.2147 181.409 33.7652 184.796C31.3156 188.182 28.65 191.76 25.9603 195.314C23.2225 198.844 20.5088 202.351 17.8431 205.569C15.1774 208.787 12.6559 211.788 10.4465 214.31C6.31594 219.041 3.26599 222.115 2.90576 222.475L43.4432 170.555Z" fill="white"/>
</g>
<g style="mix-blend-mode:screen" opacity="0.4">
<path d="M109.485 91.5215C109.485 91.5215 108.74 93.6348 107.323 97.2851C105.907 100.935 103.937 106.195 101.44 112.415C98.9422 118.634 95.9643 125.887 92.6983 133.62C89.4803 141.353 85.9023 149.542 82.324 157.755C78.6978 165.92 75.0712 174.085 71.5651 181.698C68.0589 189.311 64.7448 196.419 61.815 202.471C58.9332 208.523 56.3876 213.518 54.6825 217.024C53.1455 220.098 52.1369 221.995 51.9208 222.427L109.437 91.6175C109.446 91.5825 109.462 91.5498 109.485 91.5215Z" fill="white"/>
</g>
<g style="mix-blend-mode:screen" opacity="0.6">
<path d="M175.718 7.82422C175.711 7.88224 175.695 7.93884 175.671 7.99232C175.431 8.97694 174.662 12.0268 173.461 16.7338C171.948 22.4734 169.883 30.7587 167.169 40.6048C164.455 50.451 161.406 61.9542 157.948 74.2498C154.489 86.5455 150.695 99.6097 146.925 112.698C143.058 125.738 139.216 138.802 135.469 151.002C131.795 163.225 128.145 174.585 125.143 184.334C122.141 194.085 119.379 202.154 117.578 207.821C115.921 212.768 114.913 215.89 114.673 216.587C114.669 216.545 114.677 216.504 114.697 216.467V216.395L175.574 8.25649C175.592 8.16684 175.616 8.07856 175.647 7.99232C175.666 7.9345 175.69 7.87828 175.718 7.82422Z" fill="white"/>
</g>
<defs>
<linearGradient id="paint0_linear_1_5" x1="25.1317" y1="168.185" x2="25.1317" y2="216.97" gradientUnits="userSpaceOnUse">
<stop stop-color="#3E6896"/>
<stop offset="0.247" stop-color="#355881"/>
<stop offset="0.75" stop-color="#1F324E"/>
<stop offset="1" stop-color="#131D32"/>
</linearGradient>
<linearGradient id="paint1_linear_1_5" x1="81.0499" y1="103.526" x2="81.0499" y2="196.911" gradientUnits="userSpaceOnUse">
<stop stop-color="#9ECAE3"/>
<stop offset="0.149" stop-color="#9ECAE3"/>
<stop offset="0.375" stop-color="#70AED3"/>
<stop offset="0.65" stop-color="#4E8BB8"/>
<stop offset="0.96" stop-color="#336EA6"/>
<stop offset="1" stop-color="#233B55"/>
</linearGradient>
<linearGradient id="paint2_linear_1_5" x1="144.919" y1="7.91607" x2="144.919" y2="186.367" gradientUnits="userSpaceOnUse">
<stop stop-color="#336EA6"/>
<stop offset="0.238" stop-color="#336EA6"/>
<stop offset="0.44" stop-color="#336EA6"/>
<stop offset="0.629" stop-color="#336EA6"/>
<stop offset="0.81" stop-color="#233B55"/>
<stop offset="0.959375" stop-color="#233B55"/>
<stop offset="0.9829" stop-color="#233B55"/>
<stop offset="0.983" stop-color="#009BBC"/>
<stop offset="1" stop-color="#233B55"/>
</linearGradient>
<linearGradient id="paint3_linear_1_5" x1="144.919" y1="130.954" x2="144.919" y2="250.148" gradientUnits="userSpaceOnUse">
<stop stop-color="#336EA6"/>
<stop offset="0.238" stop-color="#336EA6"/>
<stop offset="0.44" stop-color="#336EA6"/>
<stop offset="0.629" stop-color="#336EA6"/>
<stop offset="0.81" stop-color="#233B55"/>
<stop offset="0.983" stop-color="#009BBC"/>
<stop offset="1" stop-color="#233B55"/>
</linearGradient>
<linearGradient id="paint4_linear_1_5" x1="81.0499" y1="140.628" x2="81.0499" y2="241.435" gradientUnits="userSpaceOnUse">
<stop stop-color="#70AED3"/>
<stop offset="0.149" stop-color="#4E8BB8"/>
<stop offset="0.375" stop-color="#336EA6"/>
<stop offset="0.65" stop-color="#144774"/>
<stop offset="0.96" stop-color="#144774"/>
<stop offset="1" stop-color="#144774"/>
</linearGradient>
<linearGradient id="paint5_linear_1_5" x1="25.1317" y1="192.577" x2="25.1317" y2="237.243" gradientUnits="userSpaceOnUse">
<stop stop-color="#3E6896"/>
<stop offset="0.247" stop-color="#355881"/>
<stop offset="0.75" stop-color="#1F324E"/>
<stop offset="1" stop-color="#131D32"/>
</linearGradient>
</defs>
</svg>
