<svg width="45" height="36" viewBox="0 0 45 36" fill="none" xmlns="http://www.w3.org/2000/svg">
<g clip-path="url(#clip0_17_337)">
<path d="M22.5 28.2084C29.7487 28.2084 35.625 23.638 35.625 18.0001C35.625 12.3622 29.7487 7.79175 22.5 7.79175C15.2513 7.79175 9.375 12.3622 9.375 18.0001C9.375 23.638 15.2513 28.2084 22.5 28.2084Z" stroke="white" stroke-width="2" stroke-linecap="round" stroke-linejoin="round"/>
<path d="M22.5 13.625V18L25.3125 20.1875" stroke="white" stroke-width="2" stroke-linecap="round" stroke-linejoin="round"/>
<path d="M30.9562 25.802L30.3 31.3874C30.2155 32.1146 29.7834 32.7907 29.0891 33.2822C28.3948 33.7736 27.4888 34.0446 26.55 34.0416H18.4312C17.4925 34.0446 16.5864 33.7736 15.8921 33.2822C15.1978 32.7907 14.7657 32.1146 14.6812 31.3874L14.025 25.802M14.0437 10.1979L14.7 4.61244C14.7842 3.88776 15.2136 3.21373 15.904 2.72267C16.5943 2.2316 17.4957 1.95896 18.4312 1.95828H26.5875C27.5263 1.95531 28.4323 2.22631 29.1266 2.71774C29.8209 3.20916 30.253 3.88525 30.3375 4.61244L30.9937 10.1979" stroke="white" stroke-width="2" stroke-linecap="round" stroke-linejoin="round"/>
</g>
<defs>
<clipPath id="clip0_17_337">
<rect width="45" height="35" fill="white" transform="translate(0 0.5)"/>
</clipPath>
</defs>
</svg>
