<svg width="40" height="40" viewBox="0 0 40 40" fill="none" xmlns="http://www.w3.org/2000/svg">
<path d="M16.0109 6.01141H8.73852C7.23246 6.01141 6.01135 7.23296 6.01135 8.73946V16.0119C6.01135 17.5175 7.23242 18.7382 8.73852 18.7382H16.0109C17.517 18.7382 18.7381 17.5175 18.7381 16.0119V8.73946C18.7381 7.23296 17.517 6.01141 16.0109 6.01141ZM16.92 14.9723C16.92 16.0483 16.0478 16.921 14.9719 16.921H9.77764C8.70172 16.921 7.82948 16.0483 7.82948 14.9723V9.77814C7.82948 8.70222 8.70172 7.82954 9.77764 7.82954H14.9719C16.0478 7.82954 16.92 8.70218 16.92 9.77814V14.9723Z" fill="white"/>
<path d="M30.5559 6.01141H23.2836C21.7775 6.01141 20.5564 7.23296 20.5564 8.73946V16.0119C20.5564 17.5175 21.7775 18.7382 23.2836 18.7382H30.5559C32.062 18.7382 33.2831 17.5175 33.2831 16.0119V8.73946C33.2831 7.23296 32.062 6.01141 30.5559 6.01141ZM31.465 14.9723C31.465 16.0483 30.5928 16.921 29.5169 16.921H24.3222C23.2467 16.921 22.3745 16.0483 22.3745 14.9723V9.77814C22.3745 8.70222 23.2468 7.82954 24.3222 7.82954H29.5169C30.5928 7.82954 31.465 8.70218 31.465 9.77814V14.9723Z" fill="white"/>
<path d="M16.0109 20.5573H8.73852C7.23246 20.5573 6.01135 21.7779 6.01135 23.2844V30.556C6.01135 32.0625 7.23242 33.2831 8.73852 33.2831H16.0109C17.517 33.2831 18.7381 32.0625 18.7381 30.556V23.2844C18.7381 21.7779 17.517 20.5573 16.0109 20.5573ZM16.92 29.5173C16.92 30.5932 16.0478 31.465 14.9719 31.465H9.77764C8.70172 31.465 7.82948 30.5932 7.82948 29.5173V24.3231C7.82948 23.2471 8.70172 22.3754 9.77764 22.3754H14.9719C16.0478 22.3754 16.92 23.2471 16.92 24.3231V29.5173Z" fill="white"/>
<path d="M26.9197 20.5573C23.4052 20.5573 20.5564 23.4061 20.5564 26.9197C20.5564 30.4343 23.4052 33.2831 26.9197 33.2831C30.4343 33.2831 33.2831 30.4343 33.2831 26.9197C33.2831 23.4061 30.4343 20.5573 26.9197 20.5573ZM26.9197 31.465C24.4092 31.465 22.3745 29.4303 22.3745 26.9197C22.3745 24.4101 24.4092 22.3753 26.9197 22.3753C29.4299 22.3753 31.465 24.4101 31.465 26.9197C31.465 29.4303 29.4299 31.465 26.9197 31.465Z" fill="white"/>
<path d="M32.1606 30.8259L34.8323 33.4971C35.2011 33.8656 35.2011 34.4639 34.8323 34.8323C34.4634 35.2016 33.8655 35.2016 33.4962 34.8323L30.825 32.1611C30.4561 31.7927 30.4561 31.1943 30.825 30.8259C31.1938 30.4566 31.7917 30.4566 32.1606 30.8259Z" fill="white"/>
</svg>
