<svg width="28" height="28" viewBox="0 0 28 28" fill="none" xmlns="http://www.w3.org/2000/svg">
<path d="M24.3939 28H3.60606C1.64394 28 0 26.6017 0 24.8306V10.7083C0 9.77611 0.477273 8.89055 1.32576 8.28465L11.7197 0.734082C13.0455 -0.244694 14.9545 -0.244694 16.2803 0.734082L26.6742 8.23804C27.5227 8.84395 28 9.72951 28 10.6617V24.784C28 26.6017 26.3561 28 24.3939 28ZM14 1.89929C13.6818 1.89929 13.3106 1.99251 13.0455 2.17894L2.65152 9.72951C2.33333 9.96255 2.12121 10.3354 2.12121 10.7083V24.8306C2.12121 25.5298 2.75758 26.1357 3.60606 26.1357H24.3939C25.1894 26.1357 25.8788 25.5764 25.8788 24.8306V10.7083C25.8788 10.3354 25.6667 9.96255 25.3485 9.72951L14.9545 2.17894C14.6894 1.99251 14.3182 1.89929 14 1.89929Z" fill="white"/>
<path d="M20.3637 23.8985H7.63641C7.05308 23.8985 6.57581 23.479 6.57581 22.9663C6.57581 22.4537 7.05308 22.0342 7.63641 22.0342H20.3637C20.947 22.0342 21.4243 22.4537 21.4243 22.9663C21.4243 23.479 20.947 23.8985 20.3637 23.8985Z" fill="white"/>
</svg>
