<svg width="40" height="40" viewBox="0 0 40 40" fill="none" xmlns="http://www.w3.org/2000/svg">
<circle cx="20" cy="20" r="20" fill="#9BA6FA"/>
<path d="M16.4511 20.1038C16.3723 20.0127 16.2787 19.9404 16.1756 19.8911C16.0725 19.8418 15.962 19.8164 15.8504 19.8164C15.7387 19.8164 15.6282 19.8418 15.5251 19.8911C15.422 19.9404 15.3284 20.0127 15.2496 20.1038C15.1705 20.1945 15.1077 20.3023 15.0649 20.421C15.0221 20.5397 15 20.667 15 20.7955C15 20.924 15.0221 21.0513 15.0649 21.17C15.1077 21.2887 15.1705 21.3965 15.2496 21.4872L18.304 25.0041L18.3536 25.0612C18.4281 25.1471 18.5166 25.2153 18.614 25.2618C18.7114 25.3083 18.8158 25.3323 18.9213 25.3323C19.0267 25.3323 19.1312 25.3083 19.2286 25.2618C19.326 25.2153 19.4145 25.1471 19.489 25.0612L24.7645 18.9868C24.8392 18.901 24.8984 18.7991 24.9388 18.6869C24.9792 18.5748 25 18.4546 25 18.3331C25 18.2117 24.9792 18.0915 24.9388 17.9793C24.8984 17.8671 24.8392 17.7653 24.7645 17.6795L24.6985 17.6034C24.624 17.5174 24.5355 17.4493 24.4381 17.4027C24.3406 17.3562 24.2362 17.3323 24.1308 17.3323C24.0253 17.3323 23.9209 17.3562 23.8235 17.4027C23.7261 17.4493 23.6376 17.5174 23.5631 17.6034L18.9201 22.9467L16.4511 20.1038Z" fill="white"/>
<path d="M20 8.33228L10 12.0466V23.1894C10 29.3441 14.4766 34.3323 20 34.3323C25.5234 34.3323 30 29.3441 30 23.1894V12.0466L20 8.33228ZM28.125 23.1894C28.125 28.1892 24.487 32.243 20 32.243C15.513 32.243 11.875 28.1892 11.875 23.1894V13.6135L20 10.4216L28.125 13.6135V23.1894Z" fill="white"/>
</svg>
