<svg width="40" height="40" viewBox="0 0 40 40" fill="none" xmlns="http://www.w3.org/2000/svg">
<circle cx="20" cy="20" r="20" fill="#A6D6FF"/>
<path d="M29 29.3997V27.3997C29 26.3388 28.5786 25.3214 27.8284 24.5712C27.0783 23.8211 26.0609 23.3997 25 23.3997H17C15.9391 23.3997 14.9217 23.8211 14.1716 24.5712C13.4214 25.3214 13 26.3388 13 27.3997V29.3997M25 15.3997C25 17.6088 23.2091 19.3997 21 19.3997C18.7909 19.3997 17 17.6088 17 15.3997C17 13.1905 18.7909 11.3997 21 11.3997C23.2091 11.3997 25 13.1905 25 15.3997Z" stroke="white" stroke-linecap="round" stroke-linejoin="round"/>
</svg>
